<?xml version="1.0" encoding="UTF-8"?>
<svg xmlns="http://www.w3.org/2000/svg" viewBox="0 0 512 512" width="512" height="512">
<path d="M511.92 324.11C511.92 360.72 511.92 397.33 511.92 433.94C510.71 435.08 510.6 437.42 509.82 438.96C507.65 443.23 503.92 446.88 499.46 448.68C491.3 451.98 480.2 450.14 471.55 450.14C452.23 450.14 432.9 450.14 413.57 450.14C400.76 450.14 381.65 453.97 373.27 441.5C368.61 434.55 369.74 425.75 369.74 417.78C369.74 402.2 369.74 386.61 369.74 371.02C369.74 359.34 369.74 347.65 369.74 335.96C369.74 328.79 369.31 321.33 374.18 315.49C383.47 304.33 405.37 307.94 418.72 307.94C422.28 307.94 427.66 308.91 430.87 307.51C430.72 293.46 430.56 279.4 430.41 265.35C375.7 265.42 320.99 265.48 266.29 265.54C266.29 279.63 266.29 293.72 266.29 307.8C276.96 309.35 289.96 307.94 300.89 307.94C308.5 307.94 316.32 308.24 321.75 314.4C329.39 323.05 327.1 336.01 327.1 346.71C327.1 371.65 327.1 396.59 327.1 421.52C327.1 432.44 326.31 444.32 314.37 448.78C305.45 452.11 293.46 450.14 284.05 450.14C263.17 450.14 242.28 450.14 221.4 450.14C211.15 450.14 198.46 452.29 190.64 444.1C182.89 435.99 184.9 423.89 184.9 413.57C184.9 390.2 184.9 366.82 184.9 343.44C184.9 333.31 182.89 320.68 191.43 313.23C197.45 307.98 204.44 307.94 212.05 307.94C222.68 307.94 235.32 309.31 245.71 307.8C245.71 293.72 245.71 279.63 245.71 265.54C191.01 265.48 136.3 265.42 81.59 265.35C81.44 279.4 81.28 293.46 81.13 307.51C84.34 308.91 89.72 307.94 93.28 307.94C106.63 307.94 128.53 304.33 137.82 315.49C142.69 321.33 142.26 328.79 142.26 335.96C142.26 347.65 142.26 359.34 142.26 371.02C142.26 386.61 142.26 402.2 142.26 417.78C142.26 425.75 143.39 434.55 138.73 441.5C130.35 453.97 111.24 450.14 98.43 450.14C79.1 450.14 59.77 450.14 40.45 450.14C31.8 450.14 20.7 451.98 12.54 448.68C8.08 446.88 4.35 443.23 2.18 438.96C1.4 437.42 1.29 435.08 0.08 433.94C0.08 397.31 0.08 360.68 0.08 324.06C1.49 322.89 2.04 319.31 3.08 317.53C5.2 313.89 9.04 310.68 13 309.27C21.89 306.11 38.99 307.94 48.86 307.94C52.51 307.94 57.65 308.84 61.02 307.58C61.67 303.16 61.19 298.35 61.19 293.87C61.19 284.52 61.19 275.17 61.19 265.82C61.19 260.56 59.86 252.6 64.02 248.48C67.71 244.84 73.58 245.69 78.32 245.69C89.54 245.69 100.76 245.69 111.99 245.69C141.91 245.69 171.84 245.69 201.76 245.69C211.58 245.69 221.4 245.69 231.22 245.69C235.94 245.69 241.07 246.23 245.71 245.45C245.71 231.7 245.71 217.95 245.71 204.2C235.04 202.65 222.04 204.06 211.11 204.06C203.5 204.06 195.68 203.76 190.25 197.6C182.61 188.95 184.9 175.99 184.9 165.29C184.9 140.35 184.9 115.41 184.9 90.48C184.9 79.56 185.69 67.68 197.63 63.22C206.55 59.89 218.54 61.86 227.95 61.86C248.83 61.86 269.72 61.86 290.6 61.86C300.85 61.86 313.54 59.71 321.36 67.9C329.02 75.92 327.1 87.76 327.1 97.96C327.1 121.34 327.1 144.72 327.1 168.09C327.1 178.22 328.96 190.33 320.54 197.81C314.58 203.09 307.5 203.07 299.95 203.07C289.36 203.07 276.62 201.67 266.29 203.22C266.29 217.3 266.29 231.38 266.29 245.45C270.93 246.23 276.06 245.69 280.78 245.69C290.6 245.69 300.42 245.69 310.24 245.69C340.16 245.69 370.09 245.69 400.01 245.69C411.24 245.69 422.46 245.69 433.68 245.69C438.42 245.69 444.29 244.84 447.98 248.48C452.14 252.6 450.81 260.56 450.81 265.82C450.81 275.17 450.81 284.52 450.81 293.87C450.81 298.35 450.33 303.16 450.98 307.58C454.23 308.8 459.15 307.94 462.67 307.94C472.45 307.94 489.78 306.09 498.54 309.26C502.51 310.69 506.64 313.99 508.79 317.67C509.78 319.37 510.52 323.12 511.92 324.11ZM307.33 81.57C273.11 81.57 238.89 81.57 204.67 81.57C204.67 115.5 204.67 149.43 204.67 183.36C238.89 183.36 273.11 183.36 307.33 183.36C307.33 149.43 307.33 115.5 307.33 81.57ZM122.59 328.16C88.35 328.16 54.11 328.16 19.87 328.16C19.87 362.25 19.87 396.34 19.87 430.43C54.11 430.43 88.35 430.43 122.59 430.43C122.59 396.34 122.59 362.25 122.59 328.16ZM307.33 328.16C273.11 328.16 238.89 328.16 204.67 328.16C204.67 362.25 204.67 396.34 204.67 430.43C238.89 430.43 273.11 430.43 307.33 430.43C307.33 396.34 307.33 362.25 307.33 328.16ZM492.13 327.75C457.89 327.75 423.65 327.75 389.42 327.75C389.42 361.49 389.42 395.22 389.42 428.96C423.65 428.96 457.89 428.96 492.13 428.96C492.13 395.22 492.13 361.49 492.13 327.75Z" fill="#010101" fill-rule="evenodd" stroke="#010101" stroke-width="0.25" stroke-linejoin="round"/>
</svg>
